<?xml version="1.0" encoding="UTF-8" standalone="no"?>
<svg
   xmlns:dc="http://purl.org/dc/elements/1.1/"
   xmlns:cc="http://creativecommons.org/ns#"
   xmlns:rdf="http://www.w3.org/1999/02/22-rdf-syntax-ns#"
   xmlns:svg="http://www.w3.org/2000/svg"
   xmlns="http://www.w3.org/2000/svg"
   version="1.1"
   id="svg3450"
   viewBox="0 0 350 288"
   height="288"
   width="350">
  <defs
     id="defs3452" />
  <metadata
     id="metadata3455">
    <rdf:RDF>
      <cc:Work
         rdf:about="">
        <dc:format>image/svg+xml</dc:format>
        <dc:type
           rdf:resource="http://purl.org/dc/dcmitype/StillImage" />
        <dc:title></dc:title>
      </cc:Work>
    </rdf:RDF>
  </metadata>
  <g
     transform="translate(0,-764.35871)"
     id="layer1">
    <g
       transform="translate(-85.71529,765.50157)"
       id="g3">
      <g
         id="g5">
        <path
           id="path7"
           d="m 288.001,128 c -44.183,0 -80,35.817 -80,80 0.049,44.163 35.837,79.951 80,80 44.183,0 80,-35.817 80,-80 0,-44.183 -35.817,-80 -80,-80 z m 0,144 c -35.346,0 -64,-28.654 -64,-64 0.04,-35.33 28.67,-63.96 64,-64 35.346,0 64,28.654 64,64 0,35.346 -28.654,64 -64,64 z" />
      </g>
    </g>
    <g
       transform="translate(-85.71529,765.50157)"
       id="g9">
      <g
         id="g11">
        <path
           id="path13"
           d="m 152.001,48 c -35.346,0 -64,28.654 -64,64 0,35.346 28.654,64 64,64 35.33,-0.04 63.96,-28.67 64,-64 0,-35.346 -28.654,-64 -64,-64 z m 0,112 c -26.499,-0.026 -47.974,-21.501 -48,-48 0,-26.51 21.49,-48 48,-48 26.51,0 48,21.49 48,48 0,26.51 -21.49,48 -48,48 z" />
      </g>
    </g>
    <g
       transform="translate(-85.71529,765.50157)"
       id="g15">
      <g
         id="g17">
        <path
           id="path19"
           d="m 360.001,0 c -35.346,0 -64,28.654 -64,64 0,35.346 28.654,64 64,64 35.33,-0.04 63.96,-28.67 64,-64 0,-35.346 -28.654,-64 -64,-64 z m 0,112 c -26.51,0 -48,-21.49 -48,-48 0,-26.51 21.49,-48 48,-48 26.51,0 48,21.49 48,48 -0.027,26.499 -21.501,47.974 -48,48 z" />
      </g>
    </g>
    <g
       transform="translate(-85.71529,765.50157)"
       id="g21">
      <g
         id="g23">
        <rect
           id="rect25"
           height="56"
           width="16"
           y="168"
           x="416.00101" />
      </g>
    </g>
    <g
       transform="translate(-85.71529,765.50157)"
       id="g27">
      <g
         id="g29">
        <rect
           id="rect31"
           height="16"
           width="16"
           y="136"
           x="416.00101" />
      </g>
    </g>
    <g
       transform="translate(-85.71529,765.50157)"
       id="g33">
      <g
         id="g35">
        <rect
           id="rect37"
           height="56"
           width="16"
           y="224"
           x="136.00101" />
      </g>
    </g>
    <g
       transform="translate(-85.71529,765.50157)"
       id="g39">
      <g
         id="g41">
        <rect
           id="rect43"
           height="16"
           width="16"
           y="192"
           x="136.00101" />
      </g>
    </g>
    <g
       transform="translate(-85.71529,765.50157)"
       id="g45">
      <g
         id="g47">
        <rect
           id="rect49"
           height="40"
           width="16"
           y="240"
           x="384.00101" />
      </g>
    </g>
    <g
       transform="translate(-85.71529,765.50157)"
       id="g51">
      <g
         id="g53">
        <rect
           id="rect55"
           height="72"
           width="16"
           y="32"
           x="248.00101" />
      </g>
    </g>
    <g
       transform="translate(-85.71529,765.50157)"
       id="g57">
      <g
         id="g59">
        <rect
           y="0"
           id="rect61"
           height="24"
           width="16"
           x="120.001" />
      </g>
    </g>
    <g
       transform="translate(-85.71529,765.50157)"
       id="g63" />
    <g
       transform="translate(-85.71529,765.50157)"
       id="g69">
      <g
         id="g71">
        <path
           id="path73"
           d="m 326.697,216.285 c -1.062,-3.07 -2.742,-5.89 -4.936,-8.285 8.869,-9.683 8.209,-24.723 -1.475,-33.592 -2.396,-2.194 -5.215,-3.874 -8.285,-4.936 l 0,-9.472 -16,0 0,8 -16,0 0,-8 -16,0 0,8 -8,0 0,16 8,0 0,48 -8,0 0,16 8,0 0,8 16,0 0,-8 16,0 0,8 16,0 0,-9.472 c 12.409,-4.293 18.989,-17.833 14.696,-30.243 z M 304.001,232 l -24,0 0,-16 24,0 c 4.418,0 8,3.582 8,8 0,4.418 -3.582,8 -8,8 z m 0,-32 -24,0 0,-16 24,0 c 4.418,0 8,3.582 8,8 0,4.418 -3.582,8 -8,8 z" />
      </g>
    </g>
    <g
       transform="translate(-85.71529,765.50157)"
       id="g75">
      <g
         id="g77">
        <path
           id="path79"
           d="m 172.001,112 c 6.627,-8.837 4.837,-21.373 -4,-28 -3.462,-2.596 -7.673,-4 -12,-4 l -20,0 c -4.418,0 -8,3.582 -8,8 l 0,48 c 0,4.418 3.582,8 8,8 l 20,0 c 11.046,0 20,-8.954 20,-20 0.005,-4.328 -1.399,-8.541 -4,-12 z m -16,16 -12,0 0,-8 12,0 c 2.209,0 4,1.791 4,4 0,2.209 -1.791,4 -4,4 z m 0,-24 -12,0 0,-8 12,0 c 2.209,0 4,1.791 4,4 0,2.209 -1.791,4 -4,4 z" />
      </g>
    </g>
    <g
       transform="translate(-85.71529,765.50157)"
       id="g81">
      <g
         id="g83">
        <path
           id="path85"
           d="m 380.001,64 c 6.627,-8.837 4.837,-21.373 -4,-28 -3.462,-2.596 -7.673,-4 -12,-4 l -20,0 c -4.418,0 -8,3.582 -8,8 l 0,48 c 0,4.418 3.582,8 8,8 l 20,0 c 11.046,0 20,-8.954 20,-20 0,-4.327 -1.404,-8.538 -4,-12 z m -16,16 -12,0 0,-8 12,0 c 2.209,0 4,1.791 4,4 0,2.209 -1.791,4 -4,4 z m 0,-24 -12,0 0,-8 12,0 c 2.209,0 4,1.791 4,4 0,2.209 -1.791,4 -4,4 z" />
      </g>
    </g>
    <g
       transform="translate(-85.71529,765.50157)"
       id="g87" />
    <g
       transform="translate(-85.71529,765.50157)"
       id="g89" />
    <g
       transform="translate(-85.71529,765.50157)"
       id="g91" />
    <g
       transform="translate(-85.71529,765.50157)"
       id="g93" />
    <g
       transform="translate(-85.71529,765.50157)"
       id="g95" />
    <g
       transform="translate(-85.71529,765.50157)"
       id="g97" />
    <g
       transform="translate(-85.71529,765.50157)"
       id="g99" />
    <g
       transform="translate(-85.71529,765.50157)"
       id="g101" />
    <g
       transform="translate(-85.71529,765.50157)"
       id="g103" />
    <g
       transform="translate(-85.71529,765.50157)"
       id="g105" />
    <g
       transform="translate(-85.71529,765.50157)"
       id="g107" />
    <g
       transform="translate(-85.71529,765.50157)"
       id="g109" />
    <g
       transform="translate(-85.71529,765.50157)"
       id="g111" />
    <g
       transform="translate(-85.71529,765.50157)"
       id="g113" />
    <g
       transform="translate(-85.71529,765.50157)"
       id="g115" />
  </g>
</svg>
