<?xml version="1.0" encoding="UTF-8" standalone="no"?>
<svg
   xmlns:dc="http://purl.org/dc/elements/1.1/"
   xmlns:cc="http://creativecommons.org/ns#"
   xmlns:rdf="http://www.w3.org/1999/02/22-rdf-syntax-ns#"
   xmlns:svg="http://www.w3.org/2000/svg"
   xmlns="http://www.w3.org/2000/svg"
   xmlns:xlink="http://www.w3.org/1999/xlink"
   xmlns:sodipodi="http://sodipodi.sourceforge.net/DTD/sodipodi-0.dtd"
   xmlns:inkscape="http://www.inkscape.org/namespaces/inkscape"
   width="250"
   height="250"
   viewBox="0 0 250 250"
   id="svg2"
   version="1.1"
   inkscape:version="0.91 r13725"
   sodipodi:docname="BNB (copie).svg">
  <metadata
     id="metadata15">
    <rdf:RDF>
      <cc:Work
         rdf:about="">
        <dc:format>image/svg+xml</dc:format>
        <dc:type
           rdf:resource="http://purl.org/dc/dcmitype/StillImage" />
      </cc:Work>
    </rdf:RDF>
  </metadata>
  <sodipodi:namedview
     pagecolor="#ffffff"
     bordercolor="#666666"
     borderopacity="1"
     objecttolerance="10"
     gridtolerance="10"
     guidetolerance="10"
     inkscape:pageopacity="0"
     inkscape:pageshadow="2"
     inkscape:window-width="1920"
     inkscape:window-height="944"
     id="namedview13"
     showgrid="false"
     inkscape:zoom="0.944"
     inkscape:cx="-308.46931"
     inkscape:cy="118.24582"
     inkscape:window-x="0"
     inkscape:window-y="27"
     inkscape:window-maximized="1"
     inkscape:current-layer="svg2" />
  <defs
     id="defs4">
    <circle
       id="a"
       cx="125.5"
       cy="125.5"
       r="112.5" />
  </defs>
  <g
     fill="none"
     fill-rule="evenodd"
     id="g7">
    <use
       fill="#FFF"
       xlink:href="#a"
       id="use9" />
    <circle
       stroke="#000"
       stroke-width="24"
       cx="125.5"
       cy="125.5"
       r="100.5"
       id="circle11" />
  </g>
  <path
     style="fill:#000000;fill-opacity:1"
     d="M 109.36742,219.38308 C 72.09148,212.56369 43.80807,187.8564 32.365425,152.11711 28.429317,139.8233 27.800279,116.28025 31.059212,103.22938 34.838116,88.096214 43.423252,71.931401 53.261002,61.425992 71.833974,41.592524 92.754271,31.537253 118.45625,30.090113 c 38.24083,-2.153133 72.05941,16.76561 90.07271,50.388349 15.38294,28.713068 14.86703,62.754868 -1.39041,91.745318 -5.82066,10.37947 -23.46711,28.55065 -33.31364,34.30428 -7.90217,4.61748 -17.58646,8.61482 -26.89029,11.09936 -8.03226,2.14497 -29.86247,3.16518 -37.5672,1.75566 z"
     id="path4143"
     inkscape:connector-curvature="0" />
  <g
     transform="matrix(0.48602439,0,0,0.43714436,-8.5741232,5.4410119)"
     id="g28"
     style="fill:#ffffff">
    <path
       inkscape:connector-curvature="0"
       d="M 255.61,415.43 125.13,149.65 a 6.44,6.44 0 0 1 5.77,-9.25 l 45.21,0 a 6.49,6.49 0 0 1 5.77,3.49 l 95.28,192.81 a 23.14,23.14 0 0 0 41.57,0 l 95,-192.66 a 6.48,6.48 0 0 1 5.77,-3.49 l 5.61,0 a 4.37,4.37 0 0 1 3.94,6.37 L 297.19,415.43 a 23.14,23.14 0 0 1 -41.58,0 z"
       style="fill:#ffffff"
       id="path30" />
    <g
       id="g32"
       style="fill:#ffffff">
      <path
         inkscape:connector-curvature="0"
         d="M 255.61,415.43 181.87,144"
         style="opacity:0.1;isolation:isolate;fill:#ffffff"
         id="path34" />
      <path
         inkscape:connector-curvature="0"
         d="m 277.16,336.85 -152,-187.2 a 6.53,6.53 0 0 1 5.16,-9.25 l 46,0 a 6.82,6.82 0 0 1 5.46,3.49 z"
         style="opacity:0.1;isolation:isolate;fill:#ffffff"
         id="path36" />
    </g>
  </g>
</svg>
